<!--
	this is a copy of icons.svg with ONE change: fill & stroke are black
	I used this because "use" syntax is either not working or a pain to work with
-->
<svg viewBox="0 0 528 48" xmlns="http://www.w3.org/2000/svg" style="fill:black;stroke:black;">
	<defs>
	</defs>

	<g transform="matrix(1, 0, 0, 1, 0, 32)">
		<path d="M1.2.8V.12l.39.4" style="fill:none;fill-rule:evenodd;stroke-width:.26458335px;stroke-linecap:butt;stroke-linejoin:bevel;stroke-opacity:1" transform="translate(16 -16) scale(3.77958)"></path>
		<path d="m1.85.8.61.6" style="fill:none;fill-rule:evenodd;stroke-width:.26458335px;stroke-linecap:butt;stroke-linejoin:miter;stroke-opacity:1" transform="translate(16 -16) scale(3.77958)"></path>
		<path d="M2.65 1.06 3.3.4v.4" style="fill:none;fill-rule:evenodd;stroke-width:.26458335px;stroke-linecap:butt;stroke-linejoin:bevel;stroke-opacity:1" transform="translate(16 -16) scale(3.77958)"></path>
		<path d="M3.3 1.06v.53" style="fill:none;fill-rule:evenodd;stroke-width:.26458335px;stroke-linecap:butt;stroke-linejoin:miter;stroke-opacity:1" transform="translate(16 -16) scale(3.77958)"></path>
		<path d="M3.17 2.78h.93l-.8-.8v-.13" style="fill:none;fill-rule:evenodd;stroke-width:.26458335px;stroke-linecap:butt;stroke-linejoin:bevel;stroke-opacity:1" transform="translate(16 -16) scale(3.77958)"></path>
		<path d="M2.91 2.78h-.4l-.4.4" style="fill:none;fill-rule:evenodd;stroke-width:.26458335px;stroke-linecap:butt;stroke-linejoin:miter;stroke-opacity:1" transform="translate(16 -16) scale(3.77958)"></path>
		<path d="m1.85 3.44-.66.66v-.66" style="fill:none;fill-rule:evenodd;stroke-width:.26458335px;stroke-linecap:butt;stroke-linejoin:bevel;stroke-opacity:1" transform="translate(16 -16) scale(3.77958)"></path>
		<path d="M1.2 3.17v-.4H.8" style="fill:none;fill-rule:evenodd;stroke-width:.26458335px;stroke-linecap:butt;stroke-linejoin:miter;stroke-opacity:1" transform="translate(16 -16) scale(3.77958)"></path>
		<path d="M.53 2.78h-.4l.93-.93" style="fill:none;fill-rule:evenodd;stroke-width:.26458335px;stroke-linecap:butt;stroke-linejoin:bevel;stroke-opacity:1" transform="translate(16 -16) scale(3.77958)"></path>
		<path d="M1.2 1.59v-.53" style="fill:none;fill-rule:evenodd;stroke-width:.26458335px;stroke-linecap:butt;stroke-linejoin:miter;stroke-opacity:1" transform="translate(16 -16) scale(3.77958)"></path>
	</g>
	<g transform="matrix(1, 0, 0, 1, 0, 32)">
		<g style="">
			<path style="fill:none;fill-rule:evenodd;stroke-width:1px;stroke-linecap:butt;stroke-linejoin:miter;stroke-opacity:1" d="M18 4.5h2" transform="translate(32 -18)"></path>
			<path style="display:inline;fill:none;fill-rule:evenodd;stroke-width:1px;stroke-linecap:butt;stroke-linejoin:miter;stroke-opacity:1" d="M21 4.5h2m1 0h2m1 0h2" transform="translate(32 -18)"></path>
		</g>
		<g style="">
			<path style="fill:none;fill-rule:evenodd;stroke-width:1px;stroke-linecap:butt;stroke-linejoin:miter;stroke-opacity:1" d="M18 4.5h2" transform="rotate(-90 29.5 -14.5)"></path>
			<path style="display:inline;fill:none;fill-rule:evenodd;stroke-width:1px;stroke-linecap:butt;stroke-linejoin:miter;stroke-opacity:1" d="M21 4.5h2m1 0h2m1 0h2" transform="rotate(-90 29.5 -14.5)"></path>
		</g>
		<g style="">
			<path style="fill:none;fill-rule:evenodd;stroke-width:1px;stroke-linecap:butt;stroke-linejoin:miter;stroke-opacity:1" d="M18 4.5h2" transform="translate(32 -8)"></path>
			<path style="display:inline;fill:none;fill-rule:evenodd;stroke-width:1px;stroke-linecap:butt;stroke-linejoin:miter;stroke-opacity:1" d="M21 4.5h2m1 0h2m1 0h2" transform="translate(32 -8)"></path>
		</g>
		<g style="">
			<path style="fill:none;fill-rule:evenodd;stroke-width:1px;stroke-linecap:butt;stroke-linejoin:miter;stroke-opacity:1" d="M18 4.5h2" transform="rotate(-90 36.5 -21.5)"></path>
			<path style="fill:none;fill-rule:evenodd;stroke-width:1px;stroke-linecap:butt;stroke-linejoin:miter;stroke-opacity:1" d="M21 4.5h2m1 0h2m1 0h2" transform="rotate(-90 36.5 -21.5)"></path>
		</g>
	</g>
	<g transform="matrix(0.176158, 0, 0, 0.199323, 78.211075, 14.037102)" style="fill-opacity: 1; stroke-width: 3.56297;">
		<path d="M 84.77 42.901 C 87.892 39.823 87.892 34.835 84.77 31.757 L 66.758 16.898 C 63.633 13.815 58.563 13.815 55.438 16.898 L 11.23 59.63 C 8.108 62.708 8.108 67.696 11.23 70.774 L 15.06 74.547 C 15.922 75.379 19.615 78.006 18.668 78.742 C 12.325 78.697 13.352 83.227 16.27 84.194 C 16.689 84.333 17.128 84.403 17.57 84.4 L 60.409 84.4 C 62.78 84.411 64.564 83.313 64.584 81.657 C 64.609 79.586 62.536 78.464 60.434 78.495 L 54.554 78.495 C 47.829 78.309 53.037 74.878 53.806 73.563 C 53.892 73.415 53.998 73.279 54.12 73.158 L 84.77 42.901 Z M 43.963 75.267 C 39.273 79.904 28.346 79.945 23.656 75.308 L 14.997 67.341 C 13.51 66.156 14.446 63.982 15.229 63.212 L 34.623 44.326 C 35.404 43.556 36.671 43.556 37.453 44.326 L 56.693 59.946 C 57.475 60.716 57.475 61.965 56.693 62.735 L 43.963 75.267 Z" style="fill-opacity: 1; stroke-width: 0"></path>
	</g>
	<g transform="matrix(1, 0, 0, 1, 0, 32)">
		<path d="M 117.577 -11.931 C 118.106 -12.422 116.902 -12.873 115.935 -12.549 C 113.133 -11.611 112.945 -10.108 112.945 -7.576 C 112.945 -2.095 114.931 0.966 114.931 -2.057 C 114.931 -2.057 114.111 -10.457 115.641 -9.687 C 116.159 -9.426 115.271 -9.663 115.649 -10.041 L 117.577 -11.931 Z" style="fill-opacity: 0.6; fill-rule: evenodd; stroke: none; stroke-width: 0.264583px; stroke-linecap: butt; stroke-linejoin: miter; stroke-opacity: 1;"></path>
		<path d="M 120.996 -2.998 L 117.972 -6.022 C 117.519 -6.513 117.519 -7.005 117.519 -7.534 L 116.498 -8.516 C 116.007 -8.516 114.987 -9.008 115.516 -9.499 L 120.505 -14.488 C 120.996 -15.017 121.487 -14.488 121.487 -13.505 L 122.508 -12.485 C 122.999 -12.485 123.491 -12.485 124.02 -11.994 L 127.006 -8.97 C 128.517 -7.496 122.47 -1.486 120.996 -2.998 L 120.996 -2.998 Z" style="fill-rule: evenodd; stroke-linecap: butt; stroke-linejoin: miter; stroke-opacity: 1; fill: none;"></path>
	</g>
	<g transform="matrix(1, 0, 0, 1, 0, 32)">
		<path d="m19.45 1.46-1.72 1.71-.19.62.1.09.62-.18 1.72-1.72a.98.98 0 0 0-.53-.52Z" style="fill-rule: evenodd; stroke-width: 0.264583px; stroke-linecap: butt; stroke-linejoin: miter; stroke-opacity: 1; fill-opacity: 0.3; fill: none;" transform="translate(80 -16) scale(3.77958)"></path>
		<path style="font: 400 medium sans-serif; font-feature-settings: normal; text-indent: 0px; text-align: start; text-decoration: none solid rgb(0, 0, 0); letter-spacing: normal; word-spacing: normal; text-transform: none; writing-mode: lr-tb; direction: ltr; text-orientation: mixed; dominant-baseline: auto; baseline-shift: baseline; text-anchor: start; white-space: normal; clip-rule: nonzero; isolation: auto; mix-blend-mode: normal; color-interpolation: srgb; color-interpolation-filters: linearrgb; vector-effect: none; fill-opacity: 1; fill-rule: evenodd; stroke-width: 1.00001px; stroke-linecap: butt; stroke-linejoin: miter; stroke-miterlimit: 4; stroke-dasharray: none; stroke-dashoffset: 0; stroke-opacity: 1; color-rendering: auto; image-rendering: auto; shape-rendering: auto; text-rendering: auto; fill: none;" d="M 157.1 -14.64 C 156.369 -14.674 155.657 -14.398 155.14 -13.88 L 153.29 -12 L 152.53 -12 L 152.27 -11.06 C 153.974 -10.34 155.33 -8.984 156.05 -7.28 L 156.99 -7.51 L 156.99 -8.3 L 158.96 -10.23 C 159.49 -10.739 159.765 -11.457 159.71 -12.19 C 159.646 -12.838 159.351 -13.441 158.88 -13.89 C 158.41 -14.344 157.792 -14.614 157.14 -14.65 L 157.1 -14.64 Z"></path>
	</g>
	<g transform="matrix(3.77958, 0, 0, 3.77958, 96, 16)">
		<path d="m23.42 3.04.92.93c.4.4.93-.13.53-.53l-.93-.93Z" style="fill-rule: evenodd; stroke-width: 0.198437; stroke-linecap: butt; stroke-linejoin: miter; stroke-opacity: 1; fill: none;"></path>
		<circle r="1.46" cy="1.59" cx="22.75" style="clip-rule: nonzero; isolation: auto; mix-blend-mode: normal; color-interpolation: srgb; color-interpolation-filters: linearrgb; vector-effect: none; fill-opacity: 0.1; fill-rule: nonzero; stroke-width: 0.264583; color-rendering: auto; image-rendering: auto; shape-rendering: auto; text-rendering: auto;"></circle>
	</g>
	<g transform="matrix(1, 0, 0, 1, 0, 32)">
		<path d="M 212.537 -6.513 C 212.542 -5.364 215.76 -4.285 216.505 -5.001 L 212.499 -1.486 L 212.537 -6.513 Z" style="fill-rule: evenodd; stroke-linecap: butt; stroke-linejoin: miter; stroke-opacity: 1; fill: none;"></path>
		<path d="M 212.548 -6.482 C 212.548 -5.462 215.863 -4.246 216.505 -5.001 L 220.02 -11.994 C 219.346 -10.538 215.485 -11.994 216.014 -13.505 L 212.548 -6.482 Z" style="fill-rule: evenodd; stroke-linecap: butt; stroke-linejoin: miter; stroke-opacity: 1; fill: none;"></path>
		<path d="M 215.242 -12.004 L 216.505 -14.488 C 216.77 -14.866 217.13 -15.341 217.508 -15.416 C 218.264 -15.643 219.831 -15.244 220.436 -14.186 C 220.587 -13.883 220.587 -13.43 220.512 -13.014 L 219.271 -10.531 C 218.654 -8.979 214.61 -10.728 215.242 -12.004 Z" style="fill-opacity: 1; fill-rule: evenodd; stroke-linecap: butt; stroke-linejoin: miter; stroke-opacity: 1; fill: none;"></path>
	</g>
	<g transform="matrix(1, 0, 0, 1, 0, 32)">
		<path d="M 244.487 -5.493 L 244.487 -7.496 C 244.487 -8.516 245.507 -9.008 246.49 -9.499 L 246.49 -14.375 C 246.49 -15.887 249.514 -15.887 249.514 -14.375 L 249.514 -9.499 C 250.496 -9.008 251.517 -8.516 251.517 -7.496 L 251.517 -5.493 L 244.487 -5.493 Z" style="fill-opacity: 1; fill-rule: evenodd; stroke-linecap: butt; stroke-linejoin: miter; stroke-opacity: 1; fill: none;"></path>
		<path d="M 251.47 -6.474 C 251.47 -2.467 251.517 -0.504 250.005 -0.504 L 243.013 -0.504 C 244.524 -0.504 244.477 -3.488 244.477 -6.474 L 251.47 -6.474 Z" style="opacity: 1; fill-rule: evenodd; stroke-linecap: butt; stroke-linejoin: miter; stroke-opacity: 1; fill: none;"></path>
	</g>
	<g transform="matrix(1, 0, 0, 1, 0, 32)">
		<path d="M 279.007 -9.008 L 283.315 -4.661 C 284.336 -3.679 288.342 -7.685 287.322 -8.668 L 283.013 -13.014 C 283.058 -13.002 278.999 -9.023 279.007 -9.008 Z" style="fill-opacity: 1; fill-rule: evenodd; stroke-linecap: butt; stroke-linejoin: miter; stroke-opacity: 1; fill: none;"></path>
		<path d="M 280.227 -13.243 C 281.21 -13.243 282.03 -13.997 283.013 -13.014 L 278.989 -8.992 C 277.968 -9.974 278.699 -10.838 278.699 -11.82 L 280.227 -13.243 Z" style="fill-rule: evenodd; stroke-linecap: butt; stroke-linejoin: miter; stroke-opacity: 1; fill: none;"></path>
		<g transform="matrix(3.77958, 0, 0, 3.77958, 144, -16)" style="fill-opacity:0.6;">
			<ellipse style="clip-rule: nonzero; isolation: auto; mix-blend-mode: normal; color-interpolation: srgb; color-interpolation-filters: linearrgb; vector-effect: none; fill-rule: nonzero; stroke-linecap: round; stroke-linejoin: round; stroke-miterlimit: 4; stroke-dasharray: none; stroke-dashoffset: 0; color-rendering: auto; image-rendering: auto; shape-rendering: auto; text-rendering: auto; stroke-width: 0px;" cx="15.55" cy="-31.73" rx=".19" ry=".09" transform="rotate(64.45)"></ellipse>
			<circle style="clip-rule: nonzero; isolation: auto; mix-blend-mode: normal; color-interpolation: srgb; color-interpolation-filters: linearrgb; vector-effect: none; fill-rule: nonzero; stroke-linecap: round; stroke-linejoin: round; stroke-miterlimit: 4; stroke-dasharray: none; stroke-dashoffset: 0; color-rendering: auto; image-rendering: auto; shape-rendering: auto; text-rendering: auto; stroke-width: 0px;" cx="35.06" cy=".93" r=".13"></circle>
			<ellipse style="clip-rule: nonzero; isolation: auto; mix-blend-mode: normal; color-interpolation: srgb; color-interpolation-filters: linearrgb; vector-effect: none; fill-rule: nonzero; stroke-linecap: round; stroke-linejoin: round; stroke-miterlimit: 4; stroke-dasharray: none; stroke-dashoffset: 0; color-rendering: auto; image-rendering: auto; shape-rendering: auto; text-rendering: auto; stroke-width: 0px;" cy=".69" cx="35.2" rx=".18" ry=".09" transform="rotate(-.06)"></ellipse>
			<circle style="clip-rule: nonzero; isolation: auto; mix-blend-mode: normal; color-interpolation: srgb; color-interpolation-filters: linearrgb; vector-effect: none; fill-rule: nonzero; stroke-linecap: round; stroke-linejoin: round; stroke-miterlimit: 4; stroke-dasharray: none; stroke-dashoffset: 0; color-rendering: auto; image-rendering: auto; shape-rendering: auto; text-rendering: auto; stroke-width: 0px;" cx="34.53" cy=".4" r=".13"></circle>
			<circle style="clip-rule: nonzero; isolation: auto; mix-blend-mode: normal; color-interpolation: srgb; color-interpolation-filters: linearrgb; vector-effect: none; fill-rule: nonzero; stroke-linecap: round; stroke-linejoin: round; stroke-miterlimit: 4; stroke-dasharray: none; stroke-dashoffset: 0; color-rendering: auto; image-rendering: auto; shape-rendering: auto; text-rendering: auto; stroke-width: 0px;" cx="34.53" cy=".93" r=".13"></circle>
			<circle style="clip-rule: nonzero; isolation: auto; mix-blend-mode: normal; color-interpolation: srgb; color-interpolation-filters: linearrgb; vector-effect: none; fill-rule: nonzero; stroke-linecap: round; stroke-linejoin: round; stroke-miterlimit: 4; stroke-dasharray: none; stroke-dashoffset: 0; color-rendering: auto; image-rendering: auto; shape-rendering: auto; text-rendering: auto; stroke-width: 0px;" cx="34.26" cy=".66" r=".13"></circle>
			<circle style="clip-rule: nonzero; isolation: auto; mix-blend-mode: normal; color-interpolation: srgb; color-interpolation-filters: linearrgb; vector-effect: none; fill-rule: nonzero; stroke-linecap: round; stroke-linejoin: round; stroke-miterlimit: 4; stroke-dasharray: none; stroke-dashoffset: 0; color-rendering: auto; image-rendering: auto; shape-rendering: auto; text-rendering: auto; stroke-width: 0px;" cx="34" cy=".93" r=".13"></circle>
			<circle style="clip-rule: nonzero; isolation: auto; mix-blend-mode: normal; color-interpolation: srgb; color-interpolation-filters: linearrgb; vector-effect: none; fill-rule: nonzero; stroke-linecap: round; stroke-linejoin: round; stroke-miterlimit: 4; stroke-dasharray: none; stroke-dashoffset: 0; color-rendering: auto; image-rendering: auto; shape-rendering: auto; text-rendering: auto; stroke-width: 0px;" cx="34.26" cy="1.19" r=".13"></circle>
			<circle style="clip-rule: nonzero; isolation: auto; mix-blend-mode: normal; color-interpolation: srgb; color-interpolation-filters: linearrgb; vector-effect: none; fill-rule: nonzero; stroke-linecap: round; stroke-linejoin: round; stroke-miterlimit: 4; stroke-dasharray: none; stroke-dashoffset: 0; color-rendering: auto; image-rendering: auto; shape-rendering: auto; text-rendering: auto; stroke-width: 0px;" cx="34.79" cy="1.19" r=".13"></circle>
			<circle style="clip-rule: nonzero; isolation: auto; mix-blend-mode: normal; color-interpolation: srgb; color-interpolation-filters: linearrgb; vector-effect: none; fill-rule: nonzero; stroke-linecap: round; stroke-linejoin: round; stroke-miterlimit: 4; stroke-dasharray: none; stroke-dashoffset: 0; color-rendering: auto; image-rendering: auto; shape-rendering: auto; text-rendering: auto; stroke-width: 0px;" cx="34.53" cy="1.46" r=".13"></circle>
			<circle style="clip-rule: nonzero; isolation: auto; mix-blend-mode: normal; color-interpolation: srgb; color-interpolation-filters: linearrgb; vector-effect: none; fill-rule: nonzero; stroke-linecap: round; stroke-linejoin: round; stroke-miterlimit: 4; stroke-dasharray: none; stroke-dashoffset: 0; color-rendering: auto; image-rendering: auto; shape-rendering: auto; text-rendering: auto; stroke-width: 0px;" cx="34" cy="1.46" r=".13"></circle>
			<circle style="clip-rule: nonzero; isolation: auto; mix-blend-mode: normal; color-interpolation: srgb; color-interpolation-filters: linearrgb; vector-effect: none; fill-rule: nonzero; stroke-linecap: round; stroke-linejoin: round; stroke-miterlimit: 4; stroke-dasharray: none; stroke-dashoffset: 0; color-rendering: auto; image-rendering: auto; shape-rendering: auto; text-rendering: auto; stroke-width: 0px;" cx="34.26" cy="1.72" r=".13"></circle>
			<circle style="clip-rule: nonzero; isolation: auto; mix-blend-mode: normal; color-interpolation: srgb; color-interpolation-filters: linearrgb; vector-effect: none; fill-rule: nonzero; stroke-linecap: round; stroke-linejoin: round; stroke-miterlimit: 4; stroke-dasharray: none; stroke-dashoffset: 0; color-rendering: auto; image-rendering: auto; shape-rendering: auto; text-rendering: auto; stroke-width: 0px;" cx="34.79" cy="1.72" r=".13"></circle>
			<circle style="clip-rule: nonzero; isolation: auto; mix-blend-mode: normal; color-interpolation: srgb; color-interpolation-filters: linearrgb; vector-effect: none; fill-rule: nonzero; stroke-linecap: round; stroke-linejoin: round; stroke-miterlimit: 4; stroke-dasharray: none; stroke-dashoffset: 0; color-rendering: auto; image-rendering: auto; shape-rendering: auto; text-rendering: auto; stroke-width: 0px;" cx="34.53" cy="1.98" r=".13"></circle>
			<circle style="clip-rule: nonzero; isolation: auto; mix-blend-mode: normal; color-interpolation: srgb; color-interpolation-filters: linearrgb; vector-effect: none; fill-rule: nonzero; stroke-linecap: round; stroke-linejoin: round; stroke-miterlimit: 4; stroke-dasharray: none; stroke-dashoffset: 0; color-rendering: auto; image-rendering: auto; shape-rendering: auto; text-rendering: auto; stroke-width: 0px;" cx="34" cy="1.98" r=".13"></circle>
			<circle style="clip-rule: nonzero; isolation: auto; mix-blend-mode: normal; color-interpolation: srgb; color-interpolation-filters: linearrgb; vector-effect: none; fill-rule: nonzero; stroke-linecap: round; stroke-linejoin: round; stroke-miterlimit: 4; stroke-dasharray: none; stroke-dashoffset: 0; color-rendering: auto; image-rendering: auto; shape-rendering: auto; text-rendering: auto; stroke-width: 0px;" cx="34.26" cy="2.25" r=".13"></circle>
			<circle style="clip-rule: nonzero; isolation: auto; mix-blend-mode: normal; color-interpolation: srgb; color-interpolation-filters: linearrgb; vector-effect: none; fill-rule: nonzero; stroke-linecap: round; stroke-linejoin: round; stroke-miterlimit: 4; stroke-dasharray: none; stroke-dashoffset: 0; color-rendering: auto; image-rendering: auto; shape-rendering: auto; text-rendering: auto; stroke-width: 0px;" cx="34" cy="2.51" r=".13"></circle>
			<circle style="clip-rule: nonzero; isolation: auto; mix-blend-mode: normal; color-interpolation: srgb; color-interpolation-filters: linearrgb; vector-effect: none; fill-rule: nonzero; stroke-linecap: round; stroke-linejoin: round; stroke-miterlimit: 4; stroke-dasharray: none; stroke-dashoffset: 0; color-rendering: auto; image-rendering: auto; shape-rendering: auto; text-rendering: auto; stroke-width: 0px;" cx="34.53" cy="2.51" r=".13"></circle>
			<circle style="clip-rule: nonzero; isolation: auto; mix-blend-mode: normal; color-interpolation: srgb; color-interpolation-filters: linearrgb; vector-effect: none; fill-rule: nonzero; stroke-linecap: round; stroke-linejoin: round; stroke-miterlimit: 4; stroke-dasharray: none; stroke-dashoffset: 0; color-rendering: auto; image-rendering: auto; shape-rendering: auto; text-rendering: auto; stroke-width: 0px;" cx="34.26" cy="2.78" r=".13"></circle>
			<circle style="clip-rule: nonzero; isolation: auto; mix-blend-mode: normal; color-interpolation: srgb; color-interpolation-filters: linearrgb; vector-effect: none; fill-rule: nonzero; stroke-linecap: round; stroke-linejoin: round; stroke-miterlimit: 4; stroke-dasharray: none; stroke-dashoffset: 0; color-rendering: auto; image-rendering: auto; shape-rendering: auto; text-rendering: auto; stroke-width: 0px;" cx="34" cy="3.04" r=".13"></circle>
			<circle style="clip-rule: nonzero; isolation: auto; mix-blend-mode: normal; color-interpolation: srgb; color-interpolation-filters: linearrgb; vector-effect: none; fill-rule: nonzero; stroke-linecap: round; stroke-linejoin: round; stroke-miterlimit: 4; stroke-dasharray: none; stroke-dashoffset: 0; color-rendering: auto; image-rendering: auto; shape-rendering: auto; text-rendering: auto; stroke-width: 0px;" cx="34.26" cy="3.31" r=".13"></circle>
			<circle style="clip-rule: nonzero; isolation: auto; mix-blend-mode: normal; color-interpolation: srgb; color-interpolation-filters: linearrgb; vector-effect: none; fill-rule: nonzero; stroke-linecap: round; stroke-linejoin: round; stroke-miterlimit: 4; stroke-dasharray: none; stroke-dashoffset: 0; color-rendering: auto; image-rendering: auto; shape-rendering: auto; text-rendering: auto; stroke-width: 0px;" cx="34" cy="3.57" r=".13"></circle>
			<circle style="clip-rule: nonzero; isolation: auto; mix-blend-mode: normal; color-interpolation: srgb; color-interpolation-filters: linearrgb; vector-effect: none; fill-rule: nonzero; stroke-linecap: round; stroke-linejoin: round; stroke-miterlimit: 4; stroke-dasharray: none; stroke-dashoffset: 0; color-rendering: auto; image-rendering: auto; shape-rendering: auto; text-rendering: auto; stroke-width: 0px;" cx="34.79" cy=".66" r=".13"></circle>
			<ellipse style="clip-rule: nonzero; isolation: auto; mix-blend-mode: normal; color-interpolation: srgb; color-interpolation-filters: linearrgb; vector-effect: none; fill-rule: nonzero; stroke-linecap: round; stroke-linejoin: round; stroke-miterlimit: 4; stroke-dasharray: none; stroke-dashoffset: 0; color-rendering: auto; image-rendering: auto; shape-rendering: auto; text-rendering: auto; stroke-width: 0px;" transform="rotate(98.4)" ry=".07" rx=".1" cy="-35.22" cx="-4.85"></ellipse>
			<ellipse style="clip-rule: nonzero; isolation: auto; mix-blend-mode: normal; color-interpolation: srgb; color-interpolation-filters: linearrgb; vector-effect: none; fill-rule: nonzero; stroke-linecap: round; stroke-linejoin: round; stroke-miterlimit: 4; stroke-dasharray: none; stroke-dashoffset: 0; color-rendering: auto; image-rendering: auto; shape-rendering: auto; text-rendering: auto; stroke-width: 0px;" transform="rotate(30.1)" ry=".07" rx=".13" cy="-17.24" cx="30.48"></ellipse>
		</g>
		<path d="M 278.364 -12.75 L 278.175 -13.165 C 278.213 -13.354 278.591 -13.732 278.78 -13.77 L 279.233 -13.581 L 278.364 -12.75 Z" style="fill: rgb(0, 0, 0); fill-rule: evenodd; stroke-linecap: butt; stroke-linejoin: miter; stroke-opacity: 1;"></path>
	</g>
	<g transform="matrix(1, 0, 0, 1, 0, 32)">
		<path d="M103.11 53.05h-1.19c-.08.14-.13.3-.2.43-.03.08 0 .14.05.17s.12.05.28.07v.13H101v-.13a.64.64 0 0 0 .3-.1c.08-.07.12-.2.22-.43l1.06-2.52h.27l1.25 2.59c.1.2.15.29.23.35.08.06.23.1.37.1v.14h-1.85v-.13c.13 0 .29-.02.37-.04.09-.02.15-.1.13-.16l-.1-.2Zm-.13-.26-.53-1.06-.45 1.06Z" style="stroke-width:0" transform="translate(-77.72 -206.52) scale(3.77958)" aria-label="A"></path>
	</g>
	<path style="stroke-width:1;stroke-linecap:round;stroke-linejoin:miter;stroke-opacity:1" d="M 338 17.5 L 350 29.5"></path>
	<path style="fill:none;fill-rule:evenodd;stroke-width:1.00001395;stroke-linecap:round;stroke-linejoin:miter;stroke-miterlimit:4;stroke-dasharray:none;stroke-opacity:1" d="M 374.5 17 C 384 21.5 366 25.5 375.5 30"></path>
	<path style="fill-opacity:0.1;fill-rule:evenodd;stroke-width:1.00001395;stroke-linecap:butt;stroke-linejoin:round;stroke-miterlimit:4;stroke-dasharray:none;stroke-opacity:1" d="M 433 28 L 436.5 17.5 L 444.5 17.5 L 439.5 25.5 L 445.5 25.5 L 445.5 29.5 L 433 29.5 C 432.5 29.5 432.5 29.5 433 28 Z"></path>
	<path style="clip-rule:nonzero;opacity:1;isolation:auto;mix-blend-mode:normal;color-interpolation:sRGB;color-interpolation-filters:linearRGB;solid-color:#000;solid-opacity:1;vector-effect:none;fill-opacity:0.1;fill-rule:nonzero;stroke-width:1.00001395;stroke-linecap:square;stroke-linejoin:miter;stroke-miterlimit:4;stroke-dasharray:none;stroke-dashoffset:0;stroke-opacity:1;color-rendering:auto;image-rendering:auto;shape-rendering:auto;text-rendering:auto;enable-background:accumulate" d="M 400.5 18.5 L 414.5 18.5 L 414.5 28.5 L 400.5 28.5 L 400.5 18.5 Z"></path>
	<ellipse style="clip-rule:nonzero;isolation:auto;mix-blend-mode:normal;color-interpolation:sRGB;color-interpolation-filters:linearRGB;solid-color:#000;solid-opacity:1;vector-effect:none;fill-opacity:0.1;fill-rule:nonzero;stroke-width:1.00001395;stroke-linecap:square;stroke-linejoin:bevel;stroke-miterlimit:4;stroke-dasharray:none;stroke-dashoffset:0;stroke-opacity:1;color-rendering:auto;image-rendering:auto;shape-rendering:auto;text-rendering:auto;enable-background:accumulate" cx="471.5" cy="24" rx="7" ry="4.5"></ellipse>
	<rect style="clip-rule:nonzero;isolation:auto;mix-blend-mode:normal;color-interpolation:sRGB;color-interpolation-filters:linearRGB;solid-color:#000;solid-opacity:1;vector-effect:none;fill-opacity:0.1;fill-rule:nonzero;stroke-width:1.00001395;stroke-linecap:square;stroke-linejoin:bevel;stroke-miterlimit:4;stroke-dasharray:none;stroke-dashoffset:0;stroke-opacity:1;color-rendering:auto;image-rendering:auto;shape-rendering:auto;text-rendering:auto;enable-background:accumulate" width="14" height="10" x="496.5" y="18.5" ry="3"></rect>
</svg>