<svg xmlns="http://www.w3.org/2000/svg" viewBox="0 0 528 48">
	<g style="display:inline" transform="translate(0 32)">
		<rect style="color:#000;clip-rule:nonzero;display:inline;overflow:visible;visibility:visible;opacity:1;isolation:auto;mix-blend-mode:normal;color-interpolation:sRGB;color-interpolation-filters:linearRGB;solid-color:#000;solid-opacity:1;vector-effect:none;fill:#666;fill-opacity:1;fill-rule:nonzero;stroke:#fff;stroke-width:1.00001395;stroke-linecap:square;stroke-linejoin:bevel;stroke-miterlimit:4;stroke-dasharray:none;stroke-dashoffset:0;stroke-opacity:1;color-rendering:auto;image-rendering:auto;shape-rendering:auto;text-rendering:auto;enable-background:accumulate" width="14" height="10" x="496.5" y="-13.5" ry="3"/>
		<ellipse style="color:#000;clip-rule:nonzero;display:inline;overflow:visible;visibility:visible;opacity:1;isolation:auto;mix-blend-mode:normal;color-interpolation:sRGB;color-interpolation-filters:linearRGB;solid-color:#000;solid-opacity:1;vector-effect:none;fill:#666;fill-opacity:1;fill-rule:nonzero;stroke:#fff;stroke-width:1.00001395;stroke-linecap:square;stroke-linejoin:bevel;stroke-miterlimit:4;stroke-dasharray:none;stroke-dashoffset:0;stroke-opacity:1;color-rendering:auto;image-rendering:auto;shape-rendering:auto;text-rendering:auto;enable-background:accumulate" cx="471.5" cy="-8" rx="7" ry="4.5"/>
		<path style="color:#000;clip-rule:nonzero;display:inline;overflow:visible;visibility:visible;opacity:1;isolation:auto;mix-blend-mode:normal;color-interpolation:sRGB;color-interpolation-filters:linearRGB;solid-color:#000;solid-opacity:1;vector-effect:none;fill:#666;fill-opacity:1;fill-rule:nonzero;stroke:#fff;stroke-width:1.00001395;stroke-linecap:square;stroke-linejoin:miter;stroke-miterlimit:4;stroke-dasharray:none;stroke-dashoffset:0;stroke-opacity:1;color-rendering:auto;image-rendering:auto;shape-rendering:auto;text-rendering:auto;enable-background:accumulate" d="M400.5-13.5h14v10h-14z"/>
		<path style="display:inline;fill:#666;fill-opacity:1;fill-rule:evenodd;stroke:#fff;stroke-width:1.00001395;stroke-linecap:butt;stroke-linejoin:round;stroke-miterlimit:4;stroke-dasharray:none;stroke-opacity:1" d="m433-4 3.5-10.5h8l-5 8h6v4H433c-.5 0-.5 0 0-1.5Z"/>
		<path style="display:inline;fill:none;fill-rule:evenodd;stroke:#fff;stroke-width:1.00001395;stroke-linecap:round;stroke-linejoin:miter;stroke-opacity:1" d="m338-14.5 12 12"/>
		<path style="display:inline;fill:none;fill-rule:evenodd;stroke:#fff;stroke-width:1.00001395;stroke-linecap:round;stroke-linejoin:miter;stroke-miterlimit:4;stroke-dasharray:none;stroke-opacity:1" d="M374.5-15c9.5 4.5-8.5 8.5 1 13"/>
		<g style="font-style:normal;font-weight:400;font-size:47.625px;line-height:125%;font-family:sans-serif;text-align:start;letter-spacing:0;word-spacing:0;text-anchor:start;display:inline;fill:#fff;fill-opacity:1;stroke:none;stroke-width:.26458335px;stroke-linecap:butt;stroke-linejoin:miter;stroke-opacity:1">
			<path d="M103.11 53.05h-1.19c-.08.14-.13.3-.2.43-.03.08 0 .14.05.17s.12.05.28.07v.13H101v-.13a.64.64 0 0 0 .3-.1c.08-.07.12-.2.22-.43l1.06-2.52h.27l1.25 2.59c.1.2.15.29.23.35.08.06.23.1.37.1v.14h-1.85v-.13c.13 0 .29-.02.37-.04.09-.02.15-.1.13-.16l-.1-.2Zm-.13-.26-.53-1.06-.45 1.06Z" style="font-style:normal;font-variant:normal;font-weight:400;font-stretch:normal;font-size:5.29166651px;font-family:times;-inkscape-font-specification:times;fill:#fff;fill-opacity:.98067633;stroke-width:.26458335px" transform="translate(-77.72 -206.52) scale(3.77958)" aria-label="A"/>
		</g>
		<g transform="translate(96 -16) scale(3.77958)">
			<path d="m23.42 3.04.92.93c.4.4.93-.13.53-.53l-.93-.93Z" style="fill:#06f;fill-rule:evenodd;stroke:#000;stroke-width:.1984375;stroke-linecap:butt;stroke-linejoin:miter;stroke-opacity:1"/>
			<circle r="1.46" cy="1.59" cx="22.75" style="color:#000;clip-rule:nonzero;display:inline;overflow:visible;visibility:visible;opacity:1;isolation:auto;mix-blend-mode:normal;color-interpolation:sRGB;color-interpolation-filters:linearRGB;solid-color:#000;solid-opacity:1;vector-effect:none;fill:silver;fill-opacity:.16071428;fill-rule:nonzero;stroke:#fff;stroke-width:.26458335;color-rendering:auto;image-rendering:auto;shape-rendering:auto;text-rendering:auto;enable-background:accumulate"/>
			<path d="M21.73 1.74c-.26-.66.53-1.46 1.2-1.2a1.4 1.4 0 0 0-1.2 1.2Z" style="fill:#fff;fill-rule:evenodd;stroke:none;stroke-width:.26458335px;stroke-linecap:butt;stroke-linejoin:miter;stroke-opacity:1"/>
			<path d="M23.84 1.8c0 .66-.54.95-1.07.95.4-.14.94-.55 1.07-.95Zm.05 1.31c-.11-.1-.17-.17-.2-.14-.04.03.02.1.12.21.25.25.76.79.83.72.05-.08-.51-.56-.75-.79Z" style="display:inline;fill:#fff;fill-rule:evenodd;stroke:none;stroke-width:.26458335px;stroke-linecap:butt;stroke-linejoin:miter;stroke-opacity:1"/>
		</g>
		<path style="color:#000;font-style:normal;font-variant:normal;font-weight:400;font-stretch:normal;font-size:medium;line-height:normal;font-family:sans-serif;font-variant-ligatures:normal;font-variant-position:normal;font-variant-caps:normal;font-variant-numeric:normal;font-variant-alternates:normal;font-feature-settings:normal;text-indent:0;text-align:start;text-decoration:none;text-decoration-line:none;text-decoration-style:solid;text-decoration-color:#000;letter-spacing:normal;word-spacing:normal;text-transform:none;writing-mode:lr-tb;direction:ltr;text-orientation:mixed;dominant-baseline:auto;baseline-shift:baseline;text-anchor:start;white-space:normal;shape-padding:0;clip-rule:nonzero;display:inline;overflow:visible;visibility:visible;opacity:1;isolation:auto;mix-blend-mode:normal;color-interpolation:sRGB;color-interpolation-filters:linearRGB;solid-color:#000;solid-opacity:1;vector-effect:none;fill:maroon;fill-opacity:1;fill-rule:evenodd;stroke:none;stroke-width:1.00001395px;stroke-linecap:butt;stroke-linejoin:miter;stroke-miterlimit:4;stroke-dasharray:none;stroke-dashoffset:0;stroke-opacity:1;color-rendering:auto;image-rendering:auto;shape-rendering:auto;text-rendering:auto;enable-background:accumulate" d="M157.1-14.64a2.6 2.6 0 0 0-1.96.76L153.29-12h-.76l-.26.94a7.11 7.11 0 0 1 3.78 3.78l.94-.23v-.79l1.97-1.93a2.46 2.46 0 0 0 .75-1.96 2.72 2.72 0 0 0-.83-1.7 2.72 2.72 0 0 0-1.74-.76Z"/>
		<path d="M18.12 3.44s-1.19.13-1.19.4c0 .26.53.4 1.2.4.66 0 .92-.27 1.18-.27.27 0 .53-.53-.27-.53h-.39l.53-.53c.27-.26.27-.8-.13-.4Z" style="fill:#0ff;fill-opacity:1;fill-rule:evenodd;stroke:none;stroke-width:.26458335px;stroke-linecap:butt;stroke-linejoin:miter;stroke-opacity:1" transform="translate(80 -16) scale(3.77958)"/>
		<path d="m19.45 1.46-1.72 1.71-.19.62.1.09.62-.18 1.72-1.72a.98.98 0 0 0-.53-.52Z" style="fill:#fff;fill-opacity:.80803573;fill-rule:evenodd;stroke:#000;stroke-width:.26458335px;stroke-linecap:butt;stroke-linejoin:miter;stroke-opacity:1" transform="translate(80 -16) scale(3.77958)"/>
		<path style="color:#000;font-style:normal;font-variant:normal;font-weight:400;font-stretch:normal;font-size:medium;line-height:normal;font-family:sans-serif;font-variant-ligatures:normal;font-variant-position:normal;font-variant-caps:normal;font-variant-numeric:normal;font-variant-alternates:normal;font-feature-settings:normal;text-indent:0;text-align:start;text-decoration:none;text-decoration-line:none;text-decoration-style:solid;text-decoration-color:#000;letter-spacing:normal;word-spacing:normal;text-transform:none;writing-mode:lr-tb;direction:ltr;text-orientation:mixed;dominant-baseline:auto;baseline-shift:baseline;text-anchor:start;white-space:normal;shape-padding:0;clip-rule:nonzero;display:inline;overflow:visible;visibility:visible;opacity:1;isolation:auto;mix-blend-mode:normal;color-interpolation:sRGB;color-interpolation-filters:linearRGB;solid-color:#000;solid-opacity:1;vector-effect:none;fill:red;fill-opacity:1;fill-rule:evenodd;stroke:none;stroke-width:.26458335px;stroke-linecap:butt;stroke-linejoin:miter;stroke-miterlimit:4;stroke-dasharray:none;stroke-dashoffset:0;stroke-opacity:1;color-rendering:auto;image-rendering:auto;shape-rendering:auto;text-rendering:auto;enable-background:accumulate" d="M19.53 1.1s-.22-.04-.34-.04l.02.16c.52.26.75.49 1 1l.16.03v-.21l-.08-.3c-.07-.26.98-.72.36-1.17-.46-.35-.85.23-1.12.53Z" transform="translate(80 -16) scale(3.77958)"/>
		<path d="M18.62 2.93c-.56.56-.5.73.05.17l1.12-1.12c-.04-.07-.09-.19-.13-.12l-.34.38Z" style="display:inline;fill:#d3d3d3;fill-opacity:1;fill-rule:evenodd;stroke:none;stroke-width:.26458335px;stroke-linecap:butt;stroke-linejoin:miter;stroke-opacity:1" transform="translate(80 -16) scale(3.77958)"/>
		<path d="M19.98.66c.15-.1.4-.25.4-.03 0 .1-.58.15-.4.03Z" style="display:inline;fill:#fff;fill-rule:evenodd;stroke:none;stroke-width:.26458335px;stroke-linecap:butt;stroke-linejoin:miter;stroke-opacity:1" transform="translate(80 -16) scale(3.77958)"/>
		<path d="M18.13 3.42c-.13.09-.33-.07-.36.02l-.09.3c-.01.04.25-.08.3-.1.11-.04.17-.03.2-.06.41-.42.8-.77 1.2-1.19-.07.04-.47.25-.65.43Z" style="display:inline;fill:#00bebe;fill-opacity:1;fill-rule:evenodd;stroke:none;stroke-width:.26458335px;stroke-linecap:butt;stroke-linejoin:miter;stroke-opacity:1" transform="translate(80 -16) scale(3.77958)"/>
		<path d="M8.73 2.38 10.2.93c.26-.27.26-.27.53-.27h.92c.27 0 .4.13.4.4v.66l-1.46 1.45s-.13.14-.26.14H9c-.4 0-.4 0-.4-.4v-.26c0-.14.13-.27.13-.27Z" style="fill:silver;fill-opacity:1;fill-rule:evenodd;stroke:#000;stroke-width:.26458335px;stroke-linecap:butt;stroke-linejoin:round;stroke-opacity:1" transform="translate(48 -16) scale(3.77958)"/>
		<path d="M10.32 3.3a.3.3 0 0 0 .13-.24v-.55L12.04.93v.79l-1.46 1.45Z" style="fill:#bebe00;fill-opacity:.99494952;fill-rule:evenodd;stroke:#000;stroke-width:.1984375;stroke-linecap:butt;stroke-linejoin:round;stroke-miterlimit:4;stroke-dasharray:none;stroke-opacity:1" transform="translate(48 -16) scale(3.77958)"/>
		<path d="M11.64.8h-.92c-.14 0-.26.03-.32.1L8.86 2.44c.04-.04.08-.06.21-.06h1.12c.14 0 .16-.03.26-.13L11.77.93c.03-.06 0-.14-.13-.14Z" style="display:inline;fill:#ffff95;fill-opacity:.99494952;fill-rule:evenodd;stroke:none;stroke-width:.26499999;stroke-linecap:butt;stroke-linejoin:round;stroke-miterlimit:4;stroke-dasharray:none;stroke-opacity:1" transform="translate(48 -16) scale(3.77958)"/>
		<path d="m10.39.9-1.4 1.41c-.04.04.02.1.27-.06L10.58.93c.14-.11-.02-.13-.07-.1a.3.3 0 0 0-.12.07Z" style="display:inline;fill:#fff;fill-opacity:.99494952;fill-rule:evenodd;stroke:none;stroke-width:.26499999;stroke-linecap:butt;stroke-linejoin:round;stroke-miterlimit:4;stroke-dasharray:none;stroke-opacity:1" transform="translate(48 -16) scale(3.77958)"/>
		<path d="m15.08 3.44-.8-.8c-.12-.13-.12-.26-.12-.4l-.27-.26c-.13 0-.4-.13-.26-.26L14.95.4c.13-.14.26 0 .26.26l.27.27c.13 0 .26 0 .4.13l.79.8c.4.39-1.2 1.98-1.59 1.58Z" style="fill:#fff;fill-rule:evenodd;stroke:#000;stroke-width:.26458335px;stroke-linecap:butt;stroke-linejoin:miter;stroke-opacity:1" transform="translate(64 -16) scale(3.77958)"/>
		<path d="M14.16 2.25c.13.53.92.92 1.05 1.32.27 0 1.86-1.32 1.46-1.59-.4-.52-.13-.52-.66-.66-.93.14-.13-.27-1.85 0-.85.14-.56.56 0 .93Z" style="display:inline;fill:#00bebe;fill-opacity:1;fill-rule:evenodd;stroke:none;stroke-width:.26458335px;stroke-linecap:butt;stroke-linejoin:miter;stroke-opacity:1" transform="translate(64 -16) scale(3.77958)"/>
		<path d="M14.95 1.32c.27-.3.34-.42.53-.4.06.02.06.06.13.14-.26 0-.26-.03-.66.26Zm-.4.27c-.4.26-.53.4-.53.53.03.04.27.26.27.13s.01-.46.26-.66Z" style="display:inline;fill:#000;fill-rule:evenodd;stroke:none;stroke-width:.26458335px;stroke-linecap:butt;stroke-linejoin:miter;stroke-opacity:1" transform="translate(64 -16) scale(3.77958)"/>
		<path d="M14.42 2.78c.6-.47 1.16-.95 1.59-1.59l.4.4a3.46 3.46 0 0 1-1.6 1.58Z" style="fill:#000;fill-rule:evenodd;stroke:#000;stroke-width:.26458335px;stroke-linecap:butt;stroke-linejoin:miter;stroke-opacity:1" transform="translate(64 -16) scale(3.77958)"/>
		<path d="M14.02 1.06c.14-.13-.13-.27-.4-.27-.71 0-.92.53-.92 1.2 0 1.45.8 2.5.8 1.7V2.02c-.2-.22-.09-.36.01-.46Z" style="display:inline;opacity:1;fill:#0ff;fill-opacity:1;fill-rule:evenodd;stroke:none;stroke-width:.26458335px;stroke-linecap:butt;stroke-linejoin:miter;stroke-opacity:1" transform="translate(64 -16) scale(3.77958)"/>
		<path d="m15.08 3.44-.8-.8c-.12-.13-.12-.26-.12-.4l-.27-.26c-.13 0-.4-.13-.26-.26L14.95.4c.13-.14.26 0 .26.26l.27.27c.13 0 .26 0 .4.13l.79.8c.4.39-1.2 1.98-1.59 1.58Z" style="display:inline;fill:none;fill-rule:evenodd;stroke:#000;stroke-width:.26458335px;stroke-linecap:butt;stroke-linejoin:miter;stroke-opacity:1" transform="translate(64 -16) scale(3.77958)"/>
		<path d="M30.82 2.78v-.53c0-.27.27-.4.53-.53V.43c0-.4.8-.4.8 0v1.29c.26.13.53.26.53.53v.53Z" style="fill:#bfbf00;fill-opacity:1;fill-rule:evenodd;stroke:#000;stroke-width:.26458335px;stroke-linecap:butt;stroke-linejoin:miter;stroke-opacity:1" transform="translate(128 -16) scale(3.77958)"/>
		<path d="M32.68 2.78c0 1.06 0 1.32-.4 1.32h-1.85c.4 0 .4-.53.4-1.32Z" style="display:inline;opacity:1;fill:#fff;fill-rule:evenodd;stroke:#000;stroke-width:.26458335px;stroke-linecap:butt;stroke-linejoin:miter;stroke-opacity:1" transform="translate(128 -16) scale(3.77958)"/>
		<path style="color:#000;clip-rule:nonzero;display:inline;overflow:visible;visibility:visible;opacity:1;isolation:auto;mix-blend-mode:normal;color-interpolation:sRGB;color-interpolation-filters:linearRGB;solid-color:#000;solid-opacity:1;vector-effect:none;fill:gray;fill-opacity:1;fill-rule:nonzero;stroke:#000;stroke-width:.13229167;stroke-linejoin:miter;stroke-miterlimit:4;stroke-dasharray:none;stroke-dashoffset:0;color-rendering:auto;image-rendering:auto;shape-rendering:auto;text-rendering:auto;enable-background:accumulate" d="M30.89 2.38h1.72v.26h-1.72z" transform="translate(128 -16) scale(3.77958)"/>
		<path style="color:#000;clip-rule:nonzero;display:inline;overflow:visible;visibility:visible;opacity:1;isolation:auto;mix-blend-mode:normal;color-interpolation:sRGB;color-interpolation-filters:linearRGB;solid-color:#000;solid-opacity:1;vector-effect:none;fill:gray;fill-opacity:1;fill-rule:nonzero;stroke:#000;stroke-width:.13229167;stroke-linejoin:miter;stroke-miterlimit:4;stroke-dasharray:none;stroke-dashoffset:0;color-rendering:auto;image-rendering:auto;shape-rendering:auto;text-rendering:auto;enable-background:accumulate" d="M30.89 2.58h1.72v.26h-1.72z" transform="translate(128 -16) scale(3.77958)"/>
		<path d="M31.49 3.17c-.06.29-.14.67-.28.8h.1c.07 0 .18-.15.18-.8Zm.53-.19c-.03.19-.1.84-.28.99h.14c.13-.23.14-.76.14-.99Zm.18.99c.21-.2.17-.93.15-1.06h-.07c.04.14.05.79-.08 1.06Zm-1.24 0c.26-.13.38-.93.4-1.06h-.08c0 .12-.06.8-.32 1.06Zm.6-.53c.08-.17.12-.24.15-.53h-.07c.02.14 0 .23-.08.53Z" style="color:#000;font-style:normal;font-variant:normal;font-weight:400;font-stretch:normal;font-size:medium;line-height:normal;font-family:sans-serif;font-variant-ligatures:normal;font-variant-position:normal;font-variant-caps:normal;font-variant-numeric:normal;font-variant-alternates:normal;font-feature-settings:normal;text-indent:0;text-align:start;text-decoration:none;text-decoration-line:none;text-decoration-style:solid;text-decoration-color:#000;letter-spacing:normal;word-spacing:normal;text-transform:none;writing-mode:lr-tb;direction:ltr;text-orientation:mixed;dominant-baseline:auto;baseline-shift:baseline;text-anchor:start;white-space:normal;shape-padding:0;clip-rule:nonzero;display:inline;overflow:visible;visibility:visible;opacity:1;isolation:auto;mix-blend-mode:normal;color-interpolation:sRGB;color-interpolation-filters:linearRGB;solid-color:#000;solid-opacity:1;vector-effect:none;fill:gray;fill-opacity:1;fill-rule:evenodd;stroke:none;stroke-width:.26458335px;stroke-linecap:butt;stroke-linejoin:miter;stroke-miterlimit:4;stroke-dasharray:none;stroke-dashoffset:0;stroke-opacity:1;color-rendering:auto;image-rendering:auto;shape-rendering:auto;text-rendering:auto;enable-background:accumulate" transform="translate(128 -16) scale(3.77958)"/>
		<path d="M32.37 2.16c-.18-.08-.32-.19-.44-.25-.17-.09-.16.08-.2-.54C31.7.93 31.7.36 31.8.36c.2-.01.18 1.04.17 1.44 0 0 .23.1.35.2.11.08.07.17.05.16Z" style="display:inline;fill:#f5f593;fill-opacity:1;fill-rule:evenodd;stroke:none;stroke-width:1" transform="translate(128 -16) scale(3.77958)"/>
		<path d="M35.72 1.85 36.86 3c.27.26 1.33-.8 1.06-1.06L36.78.79c-.27-.26-1.33.8-1.06 1.06Z" style="fill:#0ff;fill-opacity:1;fill-rule:evenodd;stroke:#000;stroke-width:.26458335px;stroke-linecap:butt;stroke-linejoin:miter;stroke-opacity:1" transform="translate(144 -16) scale(3.77958)"/>
		<path d="M36.12.66c.26 0 .4-.13.66.13l-1.06 1.06c-.27-.26-.13-.4-.13-.66Z" style="fill:#fff;fill-rule:evenodd;stroke:#000;stroke-width:.26458335px;stroke-linecap:butt;stroke-linejoin:miter;stroke-opacity:1" transform="translate(144 -16) scale(3.77958)"/>
		<path d="M35.59.53c-1.65-.65-1.6.4-1.6 1.59l-.12 1.58c1.14-.7.54-2 1.19-2.77Z" style="opacity:.3;fill:#0ff;fill-opacity:1;fill-rule:evenodd;stroke:none;stroke-width:.26458335px;stroke-linecap:butt;stroke-linejoin:miter;stroke-opacity:1" transform="translate(144 -16) scale(3.77958)"/>
		<g style="fill:#0ff" transform="translate(144 -16) scale(3.77958)">
			<ellipse style="color:#000;clip-rule:nonzero;display:inline;overflow:visible;visibility:visible;opacity:1;isolation:auto;mix-blend-mode:normal;color-interpolation:sRGB;color-interpolation-filters:linearRGB;solid-color:#000;solid-opacity:1;vector-effect:none;fill:#0ff;fill-opacity:1;fill-rule:nonzero;stroke:none;stroke-width:.26499999;stroke-linecap:round;stroke-linejoin:round;stroke-miterlimit:4;stroke-dasharray:none;stroke-dashoffset:0;stroke-opacity:1;color-rendering:auto;image-rendering:auto;shape-rendering:auto;text-rendering:auto;enable-background:accumulate" cx="15.55" cy="-31.73" rx=".19" ry=".09" transform="rotate(64.45)"/>
			<circle style="color:#000;clip-rule:nonzero;display:inline;overflow:visible;visibility:visible;opacity:1;isolation:auto;mix-blend-mode:normal;color-interpolation:sRGB;color-interpolation-filters:linearRGB;solid-color:#000;solid-opacity:1;vector-effect:none;fill:#0ff;fill-opacity:1;fill-rule:nonzero;stroke:none;stroke-width:.26499999;stroke-linecap:round;stroke-linejoin:round;stroke-miterlimit:4;stroke-dasharray:none;stroke-dashoffset:0;stroke-opacity:1;color-rendering:auto;image-rendering:auto;shape-rendering:auto;text-rendering:auto;enable-background:accumulate" cx="35.06" cy=".93" r=".13"/>
			<ellipse style="color:#000;clip-rule:nonzero;display:inline;overflow:visible;visibility:visible;opacity:1;isolation:auto;mix-blend-mode:normal;color-interpolation:sRGB;color-interpolation-filters:linearRGB;solid-color:#000;solid-opacity:1;vector-effect:none;fill:#0ff;fill-opacity:1;fill-rule:nonzero;stroke:none;stroke-width:.26499999;stroke-linecap:round;stroke-linejoin:round;stroke-miterlimit:4;stroke-dasharray:none;stroke-dashoffset:0;stroke-opacity:1;color-rendering:auto;image-rendering:auto;shape-rendering:auto;text-rendering:auto;enable-background:accumulate" cy=".69" cx="35.2" rx=".18" ry=".09" transform="rotate(-.06)"/>
			<circle style="color:#000;clip-rule:nonzero;display:inline;overflow:visible;visibility:visible;opacity:1;isolation:auto;mix-blend-mode:normal;color-interpolation:sRGB;color-interpolation-filters:linearRGB;solid-color:#000;solid-opacity:1;vector-effect:none;fill:#0ff;fill-opacity:1;fill-rule:nonzero;stroke:none;stroke-width:.26499999;stroke-linecap:round;stroke-linejoin:round;stroke-miterlimit:4;stroke-dasharray:none;stroke-dashoffset:0;stroke-opacity:1;color-rendering:auto;image-rendering:auto;shape-rendering:auto;text-rendering:auto;enable-background:accumulate" cx="34.53" cy=".4" r=".13"/>
			<circle style="color:#000;clip-rule:nonzero;display:inline;overflow:visible;visibility:visible;opacity:1;isolation:auto;mix-blend-mode:normal;color-interpolation:sRGB;color-interpolation-filters:linearRGB;solid-color:#000;solid-opacity:1;vector-effect:none;fill:#0ff;fill-opacity:1;fill-rule:nonzero;stroke:none;stroke-width:.26499999;stroke-linecap:round;stroke-linejoin:round;stroke-miterlimit:4;stroke-dasharray:none;stroke-dashoffset:0;stroke-opacity:1;color-rendering:auto;image-rendering:auto;shape-rendering:auto;text-rendering:auto;enable-background:accumulate" cx="34.53" cy=".93" r=".13"/>
			<circle style="color:#000;clip-rule:nonzero;display:inline;overflow:visible;visibility:visible;opacity:1;isolation:auto;mix-blend-mode:normal;color-interpolation:sRGB;color-interpolation-filters:linearRGB;solid-color:#000;solid-opacity:1;vector-effect:none;fill:#0ff;fill-opacity:1;fill-rule:nonzero;stroke:none;stroke-width:.26499999;stroke-linecap:round;stroke-linejoin:round;stroke-miterlimit:4;stroke-dasharray:none;stroke-dashoffset:0;stroke-opacity:1;color-rendering:auto;image-rendering:auto;shape-rendering:auto;text-rendering:auto;enable-background:accumulate" cx="34.26" cy=".66" r=".13"/>
			<circle style="color:#000;clip-rule:nonzero;display:inline;overflow:visible;visibility:visible;opacity:1;isolation:auto;mix-blend-mode:normal;color-interpolation:sRGB;color-interpolation-filters:linearRGB;solid-color:#000;solid-opacity:1;vector-effect:none;fill:#0ff;fill-opacity:1;fill-rule:nonzero;stroke:none;stroke-width:.26499999;stroke-linecap:round;stroke-linejoin:round;stroke-miterlimit:4;stroke-dasharray:none;stroke-dashoffset:0;stroke-opacity:1;color-rendering:auto;image-rendering:auto;shape-rendering:auto;text-rendering:auto;enable-background:accumulate" cx="34" cy=".93" r=".13"/>
			<circle style="color:#000;clip-rule:nonzero;display:inline;overflow:visible;visibility:visible;opacity:1;isolation:auto;mix-blend-mode:normal;color-interpolation:sRGB;color-interpolation-filters:linearRGB;solid-color:#000;solid-opacity:1;vector-effect:none;fill:#0ff;fill-opacity:1;fill-rule:nonzero;stroke:none;stroke-width:.26499999;stroke-linecap:round;stroke-linejoin:round;stroke-miterlimit:4;stroke-dasharray:none;stroke-dashoffset:0;stroke-opacity:1;color-rendering:auto;image-rendering:auto;shape-rendering:auto;text-rendering:auto;enable-background:accumulate" cx="34.26" cy="1.19" r=".13"/>
			<circle style="color:#000;clip-rule:nonzero;display:inline;overflow:visible;visibility:visible;opacity:1;isolation:auto;mix-blend-mode:normal;color-interpolation:sRGB;color-interpolation-filters:linearRGB;solid-color:#000;solid-opacity:1;vector-effect:none;fill:#0ff;fill-opacity:1;fill-rule:nonzero;stroke:none;stroke-width:.26499999;stroke-linecap:round;stroke-linejoin:round;stroke-miterlimit:4;stroke-dasharray:none;stroke-dashoffset:0;stroke-opacity:1;color-rendering:auto;image-rendering:auto;shape-rendering:auto;text-rendering:auto;enable-background:accumulate" cx="34.79" cy="1.19" r=".13"/>
			<circle style="color:#000;clip-rule:nonzero;display:inline;overflow:visible;visibility:visible;opacity:1;isolation:auto;mix-blend-mode:normal;color-interpolation:sRGB;color-interpolation-filters:linearRGB;solid-color:#000;solid-opacity:1;vector-effect:none;fill:#0ff;fill-opacity:1;fill-rule:nonzero;stroke:none;stroke-width:.26499999;stroke-linecap:round;stroke-linejoin:round;stroke-miterlimit:4;stroke-dasharray:none;stroke-dashoffset:0;stroke-opacity:1;color-rendering:auto;image-rendering:auto;shape-rendering:auto;text-rendering:auto;enable-background:accumulate" cx="34.53" cy="1.46" r=".13"/>
			<circle style="color:#000;clip-rule:nonzero;display:inline;overflow:visible;visibility:visible;opacity:1;isolation:auto;mix-blend-mode:normal;color-interpolation:sRGB;color-interpolation-filters:linearRGB;solid-color:#000;solid-opacity:1;vector-effect:none;fill:#0ff;fill-opacity:1;fill-rule:nonzero;stroke:none;stroke-width:.26499999;stroke-linecap:round;stroke-linejoin:round;stroke-miterlimit:4;stroke-dasharray:none;stroke-dashoffset:0;stroke-opacity:1;color-rendering:auto;image-rendering:auto;shape-rendering:auto;text-rendering:auto;enable-background:accumulate" cx="34" cy="1.46" r=".13"/>
			<circle style="color:#000;clip-rule:nonzero;display:inline;overflow:visible;visibility:visible;opacity:1;isolation:auto;mix-blend-mode:normal;color-interpolation:sRGB;color-interpolation-filters:linearRGB;solid-color:#000;solid-opacity:1;vector-effect:none;fill:#0ff;fill-opacity:1;fill-rule:nonzero;stroke:none;stroke-width:.26499999;stroke-linecap:round;stroke-linejoin:round;stroke-miterlimit:4;stroke-dasharray:none;stroke-dashoffset:0;stroke-opacity:1;color-rendering:auto;image-rendering:auto;shape-rendering:auto;text-rendering:auto;enable-background:accumulate" cx="34.26" cy="1.72" r=".13"/>
			<circle style="color:#000;clip-rule:nonzero;display:inline;overflow:visible;visibility:visible;opacity:1;isolation:auto;mix-blend-mode:normal;color-interpolation:sRGB;color-interpolation-filters:linearRGB;solid-color:#000;solid-opacity:1;vector-effect:none;fill:#0ff;fill-opacity:1;fill-rule:nonzero;stroke:none;stroke-width:.26499999;stroke-linecap:round;stroke-linejoin:round;stroke-miterlimit:4;stroke-dasharray:none;stroke-dashoffset:0;stroke-opacity:1;color-rendering:auto;image-rendering:auto;shape-rendering:auto;text-rendering:auto;enable-background:accumulate" cx="34.79" cy="1.72" r=".13"/>
			<circle style="color:#000;clip-rule:nonzero;display:inline;overflow:visible;visibility:visible;opacity:1;isolation:auto;mix-blend-mode:normal;color-interpolation:sRGB;color-interpolation-filters:linearRGB;solid-color:#000;solid-opacity:1;vector-effect:none;fill:#0ff;fill-opacity:1;fill-rule:nonzero;stroke:none;stroke-width:.26499999;stroke-linecap:round;stroke-linejoin:round;stroke-miterlimit:4;stroke-dasharray:none;stroke-dashoffset:0;stroke-opacity:1;color-rendering:auto;image-rendering:auto;shape-rendering:auto;text-rendering:auto;enable-background:accumulate" cx="34.53" cy="1.98" r=".13"/>
			<circle style="color:#000;clip-rule:nonzero;display:inline;overflow:visible;visibility:visible;opacity:1;isolation:auto;mix-blend-mode:normal;color-interpolation:sRGB;color-interpolation-filters:linearRGB;solid-color:#000;solid-opacity:1;vector-effect:none;fill:#0ff;fill-opacity:1;fill-rule:nonzero;stroke:none;stroke-width:.26499999;stroke-linecap:round;stroke-linejoin:round;stroke-miterlimit:4;stroke-dasharray:none;stroke-dashoffset:0;stroke-opacity:1;color-rendering:auto;image-rendering:auto;shape-rendering:auto;text-rendering:auto;enable-background:accumulate" cx="34" cy="1.98" r=".13"/>
			<circle style="color:#000;clip-rule:nonzero;display:inline;overflow:visible;visibility:visible;opacity:1;isolation:auto;mix-blend-mode:normal;color-interpolation:sRGB;color-interpolation-filters:linearRGB;solid-color:#000;solid-opacity:1;vector-effect:none;fill:#0ff;fill-opacity:1;fill-rule:nonzero;stroke:none;stroke-width:.26499999;stroke-linecap:round;stroke-linejoin:round;stroke-miterlimit:4;stroke-dasharray:none;stroke-dashoffset:0;stroke-opacity:1;color-rendering:auto;image-rendering:auto;shape-rendering:auto;text-rendering:auto;enable-background:accumulate" cx="34.26" cy="2.25" r=".13"/>
			<circle style="color:#000;clip-rule:nonzero;display:inline;overflow:visible;visibility:visible;opacity:1;isolation:auto;mix-blend-mode:normal;color-interpolation:sRGB;color-interpolation-filters:linearRGB;solid-color:#000;solid-opacity:1;vector-effect:none;fill:#0ff;fill-opacity:1;fill-rule:nonzero;stroke:none;stroke-width:.26499999;stroke-linecap:round;stroke-linejoin:round;stroke-miterlimit:4;stroke-dasharray:none;stroke-dashoffset:0;stroke-opacity:1;color-rendering:auto;image-rendering:auto;shape-rendering:auto;text-rendering:auto;enable-background:accumulate" cx="34" cy="2.51" r=".13"/>
			<circle style="color:#000;clip-rule:nonzero;display:inline;overflow:visible;visibility:visible;opacity:1;isolation:auto;mix-blend-mode:normal;color-interpolation:sRGB;color-interpolation-filters:linearRGB;solid-color:#000;solid-opacity:1;vector-effect:none;fill:#0ff;fill-opacity:1;fill-rule:nonzero;stroke:none;stroke-width:.26499999;stroke-linecap:round;stroke-linejoin:round;stroke-miterlimit:4;stroke-dasharray:none;stroke-dashoffset:0;stroke-opacity:1;color-rendering:auto;image-rendering:auto;shape-rendering:auto;text-rendering:auto;enable-background:accumulate" cx="34.53" cy="2.51" r=".13"/>
			<circle style="color:#000;clip-rule:nonzero;display:inline;overflow:visible;visibility:visible;opacity:1;isolation:auto;mix-blend-mode:normal;color-interpolation:sRGB;color-interpolation-filters:linearRGB;solid-color:#000;solid-opacity:1;vector-effect:none;fill:#0ff;fill-opacity:1;fill-rule:nonzero;stroke:none;stroke-width:.26499999;stroke-linecap:round;stroke-linejoin:round;stroke-miterlimit:4;stroke-dasharray:none;stroke-dashoffset:0;stroke-opacity:1;color-rendering:auto;image-rendering:auto;shape-rendering:auto;text-rendering:auto;enable-background:accumulate" cx="34.26" cy="2.78" r=".13"/>
			<circle style="color:#000;clip-rule:nonzero;display:inline;overflow:visible;visibility:visible;opacity:1;isolation:auto;mix-blend-mode:normal;color-interpolation:sRGB;color-interpolation-filters:linearRGB;solid-color:#000;solid-opacity:1;vector-effect:none;fill:#0ff;fill-opacity:1;fill-rule:nonzero;stroke:none;stroke-width:.26499999;stroke-linecap:round;stroke-linejoin:round;stroke-miterlimit:4;stroke-dasharray:none;stroke-dashoffset:0;stroke-opacity:1;color-rendering:auto;image-rendering:auto;shape-rendering:auto;text-rendering:auto;enable-background:accumulate" cx="34" cy="3.04" r=".13"/>
			<circle style="color:#000;clip-rule:nonzero;display:inline;overflow:visible;visibility:visible;opacity:1;isolation:auto;mix-blend-mode:normal;color-interpolation:sRGB;color-interpolation-filters:linearRGB;solid-color:#000;solid-opacity:1;vector-effect:none;fill:#0ff;fill-opacity:1;fill-rule:nonzero;stroke:none;stroke-width:.26499999;stroke-linecap:round;stroke-linejoin:round;stroke-miterlimit:4;stroke-dasharray:none;stroke-dashoffset:0;stroke-opacity:1;color-rendering:auto;image-rendering:auto;shape-rendering:auto;text-rendering:auto;enable-background:accumulate" cx="34.26" cy="3.31" r=".13"/>
			<circle style="color:#000;clip-rule:nonzero;display:inline;overflow:visible;visibility:visible;opacity:1;isolation:auto;mix-blend-mode:normal;color-interpolation:sRGB;color-interpolation-filters:linearRGB;solid-color:#000;solid-opacity:1;vector-effect:none;fill:#0ff;fill-opacity:1;fill-rule:nonzero;stroke:none;stroke-width:.26499999;stroke-linecap:round;stroke-linejoin:round;stroke-miterlimit:4;stroke-dasharray:none;stroke-dashoffset:0;stroke-opacity:1;color-rendering:auto;image-rendering:auto;shape-rendering:auto;text-rendering:auto;enable-background:accumulate" cx="34" cy="3.57" r=".13"/>
			<circle style="color:#000;clip-rule:nonzero;display:inline;overflow:visible;visibility:visible;opacity:1;isolation:auto;mix-blend-mode:normal;color-interpolation:sRGB;color-interpolation-filters:linearRGB;solid-color:#000;solid-opacity:1;vector-effect:none;fill:#0ff;fill-opacity:1;fill-rule:nonzero;stroke:none;stroke-width:.26499999;stroke-linecap:round;stroke-linejoin:round;stroke-miterlimit:4;stroke-dasharray:none;stroke-dashoffset:0;stroke-opacity:1;color-rendering:auto;image-rendering:auto;shape-rendering:auto;text-rendering:auto;enable-background:accumulate" cx="34.79" cy=".66" r=".13"/>
			<ellipse style="color:#000;clip-rule:nonzero;display:inline;overflow:visible;visibility:visible;opacity:1;isolation:auto;mix-blend-mode:normal;color-interpolation:sRGB;color-interpolation-filters:linearRGB;solid-color:#000;solid-opacity:1;vector-effect:none;fill:#0ff;fill-opacity:1;fill-rule:nonzero;stroke:none;stroke-width:.26499999;stroke-linecap:round;stroke-linejoin:round;stroke-miterlimit:4;stroke-dasharray:none;stroke-dashoffset:0;stroke-opacity:1;color-rendering:auto;image-rendering:auto;shape-rendering:auto;text-rendering:auto;enable-background:accumulate" transform="rotate(98.4)" ry=".07" rx=".1" cy="-35.22" cx="-4.85"/>
			<ellipse style="color:#000;clip-rule:nonzero;display:inline;overflow:visible;visibility:visible;opacity:1;isolation:auto;mix-blend-mode:normal;color-interpolation:sRGB;color-interpolation-filters:linearRGB;solid-color:#000;solid-opacity:1;vector-effect:none;fill:#0ff;fill-opacity:1;fill-rule:nonzero;stroke:none;stroke-width:.26499999;stroke-linecap:round;stroke-linejoin:round;stroke-miterlimit:4;stroke-dasharray:none;stroke-dashoffset:0;stroke-opacity:1;color-rendering:auto;image-rendering:auto;shape-rendering:auto;text-rendering:auto;enable-background:accumulate" transform="rotate(30.1)" ry=".07" rx=".13" cy="-17.24" cx="30.48"/>
		</g>
		<path d="M35.55.86 35.5.75c.01-.05.11-.15.16-.16l.12.05Z" style="fill:#000;fill-rule:evenodd;stroke:#fff;stroke-width:.26458335px;stroke-linecap:butt;stroke-linejoin:miter;stroke-opacity:1" transform="translate(144 -16) scale(3.77958)"/>
		<path d="M37.71 2.2a3.86 3.86 0 0 0-1.04-1.06.48.48 0 0 0-.06.06c-.03.05.04.16.43.55.28.28.6.53.64.49Z" style="display:inline;fill:#fff;fill-rule:evenodd;stroke:none;stroke-width:.26458335px;stroke-linecap:butt;stroke-linejoin:miter;stroke-opacity:1" transform="translate(144 -16) scale(3.77958)"/>
		<path d="M26.6 2.51c.12-.26 1.18.14 1.05.4l-1.06.93Z" style="fill:#000;fill-rule:evenodd;stroke:#000;stroke-width:.26458335px;stroke-linecap:butt;stroke-linejoin:miter;stroke-opacity:1" transform="translate(112 -16) scale(3.77958)"/>
		<path d="M26.6 2.51c0 .27.88.6 1.05.4l.93-1.85c-.14.26-1.2 0-1.06-.4Z" style="fill:#ff0;fill-rule:evenodd;stroke:#000;stroke-width:.26458335px;stroke-linecap:butt;stroke-linejoin:miter;stroke-opacity:1" transform="translate(112 -16) scale(3.77958)"/>
		<path d="m27.52.66.13-.26c.07-.1.13-.22.23-.24.2-.06.65.04.81.32.04.08.04.2.02.31l-.14.27c-.13.26-1.19 0-1.05-.4Z" style="display:inline;fill:#ff3993;fill-opacity:1;fill-rule:evenodd;stroke:#000;stroke-width:.26458335px;stroke-linecap:butt;stroke-linejoin:miter;stroke-opacity:1" transform="translate(112 -16) scale(3.77958)"/>
		<path d="M27.93.92c-.09-.02-.2-.06-.23-.15-.04-.12.03-.3.14-.37.11-.07.28-.02.4.04.07.02.14.06.15.13a.37.37 0 0 1-.15.36c-.09.05-.21.02-.31 0Z" style="fill:#f69cd0;fill-opacity:1;fill-rule:evenodd;stroke:none" transform="translate(112 -16) scale(3.77958)"/>
		<path d="M27.38 1.85c-.26.53-.79 1.32-.13 0s.4-.53.13 0Z" style="display:inline;fill:#fff;fill-rule:evenodd;stroke:none;stroke-width:1" transform="translate(112 -16) scale(3.77958)"/>
		<path d="M27.55 2.83a.28.28 0 0 1-.12.01c.37-.73.72-1.49.8-1.55h.08Z" style="display:inline;fill:#b3b3b3;fill-rule:evenodd;stroke:none;stroke-width:1" transform="translate(112 -16) scale(3.77958)"/>
		<path d="M27.57 2.12c-.48.97-.4.6-.05-.14.35-.73.53-.83.05.14Z" style="display:inline;fill:#fff;fill-rule:evenodd;stroke:none;stroke-width:1" transform="translate(112 -16) scale(3.77958)"/>
		<path d="m26.64 2.72-.02.53.11-.06.03.26.2-.16.03.12.44-.38c-.17-.02-.5-.06-.79-.3Z" style="fill:#fea;fill-opacity:1;fill-rule:evenodd;stroke:none;stroke-width:.26458335px;stroke-linecap:butt;stroke-linejoin:miter;stroke-opacity:1" transform="translate(112 -16) scale(3.77958)"/>
		<path d="M27.62.56c.21.26.6.43.91.45l-.11.24c-.4-.08-.62-.15-.91-.45Z" style="color:#000;clip-rule:nonzero;display:inline;overflow:visible;visibility:visible;opacity:1;isolation:auto;mix-blend-mode:normal;color-interpolation:sRGB;color-interpolation-filters:linearRGB;solid-color:#000;solid-opacity:1;vector-effect:none;fill:gray;fill-opacity:1;fill-rule:nonzero;stroke:#000;stroke-width:.13229167;stroke-linejoin:miter;stroke-miterlimit:4;stroke-dasharray:none;stroke-dashoffset:0;color-rendering:auto;image-rendering:auto;shape-rendering:auto;text-rendering:auto;enable-background:accumulate" transform="translate(112 -16) scale(3.77958)"/>
		<path d="M27.53.74c.22.27.56.4.9.45l-.1.24a1.5 1.5 0 0 1-.92-.45Z" style="color:#000;clip-rule:nonzero;display:inline;overflow:visible;visibility:visible;opacity:1;isolation:auto;mix-blend-mode:normal;color-interpolation:sRGB;color-interpolation-filters:linearRGB;solid-color:#000;solid-opacity:1;vector-effect:none;fill:gray;fill-opacity:1;fill-rule:nonzero;stroke:#000;stroke-width:.13229167;stroke-linejoin:miter;stroke-miterlimit:4;stroke-dasharray:none;stroke-dashoffset:0;color-rendering:auto;image-rendering:auto;shape-rendering:auto;text-rendering:auto;enable-background:accumulate" transform="translate(112 -16) scale(3.77958)"/>
		<g style="stroke:#fff">
			<path d="M1.2.8V.12l.39.4" style="fill:none;fill-rule:evenodd;stroke:#fff;stroke-width:.26458335px;stroke-linecap:butt;stroke-linejoin:bevel;stroke-opacity:1" transform="translate(16 -16) scale(3.77958)"/>
			<path d="m1.85.8.61.6" style="fill:none;fill-rule:evenodd;stroke:#fff;stroke-width:.26458335px;stroke-linecap:butt;stroke-linejoin:miter;stroke-opacity:1" transform="translate(16 -16) scale(3.77958)"/>
			<path d="M2.65 1.06 3.3.4v.4" style="fill:none;fill-rule:evenodd;stroke:#fff;stroke-width:.26458335px;stroke-linecap:butt;stroke-linejoin:bevel;stroke-opacity:1" transform="translate(16 -16) scale(3.77958)"/>
			<path d="M3.3 1.06v.53" style="fill:none;fill-rule:evenodd;stroke:#fff;stroke-width:.26458335px;stroke-linecap:butt;stroke-linejoin:miter;stroke-opacity:1" transform="translate(16 -16) scale(3.77958)"/>
			<path d="M3.17 2.78h.93l-.8-.8v-.13" style="fill:none;fill-rule:evenodd;stroke:#fff;stroke-width:.26458335px;stroke-linecap:butt;stroke-linejoin:bevel;stroke-opacity:1" transform="translate(16 -16) scale(3.77958)"/>
			<path d="M2.91 2.78h-.4l-.4.4" style="fill:none;fill-rule:evenodd;stroke:#fff;stroke-width:.26458335px;stroke-linecap:butt;stroke-linejoin:miter;stroke-opacity:1" transform="translate(16 -16) scale(3.77958)"/>
			<path d="m1.85 3.44-.66.66v-.66" style="fill:none;fill-rule:evenodd;stroke:#fff;stroke-width:.26458335px;stroke-linecap:butt;stroke-linejoin:bevel;stroke-opacity:1" transform="translate(16 -16) scale(3.77958)"/>
			<path d="M1.2 3.17v-.4H.8" style="fill:none;fill-rule:evenodd;stroke:#fff;stroke-width:.26458335px;stroke-linecap:butt;stroke-linejoin:miter;stroke-opacity:1" transform="translate(16 -16) scale(3.77958)"/>
			<path d="M.53 2.78h-.4l.93-.93" style="fill:none;fill-rule:evenodd;stroke:#fff;stroke-width:.26458335px;stroke-linecap:butt;stroke-linejoin:bevel;stroke-opacity:1" transform="translate(16 -16) scale(3.77958)"/>
			<path d="M1.2 1.59v-.53" style="fill:none;fill-rule:evenodd;stroke:#fff;stroke-width:.26458335px;stroke-linecap:butt;stroke-linejoin:miter;stroke-opacity:1" transform="translate(16 -16) scale(3.77958)"/>
		</g>
		<g style="stroke:#fff">
			<g style="display:inline;stroke:#fff">
				<path style="fill:none;fill-rule:evenodd;stroke:#fff;stroke-width:1px;stroke-linecap:butt;stroke-linejoin:miter;stroke-opacity:1" d="M18 4.5h2" transform="translate(32 -18)"/>
				<path style="display:inline;fill:none;fill-rule:evenodd;stroke:#fff;stroke-width:1px;stroke-linecap:butt;stroke-linejoin:miter;stroke-opacity:1" d="M21 4.5h2m1 0h2m1 0h2" transform="translate(32 -18)"/>
			</g>
			<g style="display:inline;stroke:#fff">
				<path style="fill:none;fill-rule:evenodd;stroke:#fff;stroke-width:1px;stroke-linecap:butt;stroke-linejoin:miter;stroke-opacity:1" d="M18 4.5h2" transform="rotate(-90 29.5 -14.5)"/>
				<path style="display:inline;fill:none;fill-rule:evenodd;stroke:#fff;stroke-width:1px;stroke-linecap:butt;stroke-linejoin:miter;stroke-opacity:1" d="M21 4.5h2m1 0h2m1 0h2" transform="rotate(-90 29.5 -14.5)"/>
			</g>
			<g style="display:inline;stroke:#fff">
				<path style="fill:none;fill-rule:evenodd;stroke:#fff;stroke-width:1px;stroke-linecap:butt;stroke-linejoin:miter;stroke-opacity:1" d="M18 4.5h2" transform="translate(32 -8)"/>
				<path style="display:inline;fill:none;fill-rule:evenodd;stroke:#fff;stroke-width:1px;stroke-linecap:butt;stroke-linejoin:miter;stroke-opacity:1" d="M21 4.5h2m1 0h2m1 0h2" transform="translate(32 -8)"/>
			</g>
			<g style="display:inline;stroke:#fff">
				<path style="fill:none;fill-rule:evenodd;stroke:#fff;stroke-width:1px;stroke-linecap:butt;stroke-linejoin:miter;stroke-opacity:1" d="M18 4.5h2" transform="rotate(-90 36.5 -21.5)"/>
				<path style="display:inline;fill:none;fill-rule:evenodd;stroke:#fff;stroke-width:1px;stroke-linecap:butt;stroke-linejoin:miter;stroke-opacity:1" d="M21 4.5h2m1 0h2m1 0h2" transform="rotate(-90 36.5 -21.5)"/>
			</g>
		</g>
	</g>
</svg>