<svg 
	xmlns="http://www.w3.org/2000/svg"
	viewBox="0 0 20 20"
	style="fill: #9aac7a;"
>
	<path d="
		M 7 18.6
		C 5.5 18 5 17 5.25 16.5
		C 6 15.5 7 16 7 17
		C 7.6 18 8.6 17.7 8.8 16
		C 9 16 9 9.8 8.9 10
		C 9 9 8.7 4 9.5 2.5
		C 10.4 1 12 0.9 13.2 1.3
		C 14.3 1.8 14.7 2.5 14.36 3.1
		C 14 4 12.8 3.8 12.6 3
		C 12.3 2.1 11.4 2.2 11 3
		C 10.6 3.6 10.8 9 10.8 9.5
		C 10.8 9.9 11 14.8 10.4 16.6
		C 10 18.3 9 18.9 7 18.6
		Z
		M 0 10
		C 0 16 4 20 10 20
		C 16 20 20 16 20 10
		C 20 4 16 0 10 0
		C 4 0 0 5 0 10
		Z
	"
	/>
</svg>
